<svg xmlns="http://www.w3.org/2000/svg" viewBox="0 0 126.5 126.5"><path d="M897,477h126.5V603.5H897Zm92.38,86.08c.38,1.23,1.1,2.47,1,3.68-.09,1.75-1.37,2-2.56.88l1-1.84c-.36-.16-.92-.55-1-.45-.55.53-1.43,1.22-1.36,1.76.1.83.81,2.19,1.37,2.24a4.33,4.33,0,0,0,3.2-1c1.45-1.48.9-3.74-1-5.94-2.53-1.72-5.54-.91-7.09,1.89a8.17,8.17,0,0,0,2.06,9.94c2.67,2.32,6.12,2.38,9.14.05a9.92,9.92,0,0,0,4-9.67c-1.11-8.55-10-16.74-19.54-18.22a16.5,16.5,0,0,1-3.65-1.53c0,2.33,0,5.22,0,8.12a14.17,14.17,0,0,0,.3,1.92c.17,1,.81,2.35.4,3-1,1.66-2.5,3.18-4.81,2.94s-4-3.08-2.81-5c1.78-3,1.53-6.15,1.05-9.37l-.12-2.73c-.22-4.91,1.79-7,6.72-6.88.07,0,.14-.25.21-.38-2.94-1.69-6.94-.49-7.77,2.81-.57,2.27,0,4.82,0,7.24-3.34,1.63-6.83.9-10.32,1L960,543c1.44-4.39-1.68-9.47-6-9.28,3.67,2.13,6,4.79,4.85,9.21-1.88,2.63-3.83,5.22-5.6,7.92a9.82,9.82,0,0,0-.7,2.81,19.32,19.32,0,0,1-1.36,4.58c-1,1.66-3.84,1.68-5.33.34s-1.18-3.3.16-4.89c1.8-2.13,3.4-4.43,5.08-6.66a47.36,47.36,0,0,0,2.69-4.67c.81-1.82,0-2.77-1.38-2.81a12.5,12.5,0,0,1-.07,3.43,18.84,18.84,0,0,1-1.87,3.47,9.06,9.06,0,0,1-2.21,0c-13.48-3.61-27.53-5.57-39.41-13.82-3.41,16.47,3.56,40.34,25.44,52.44,20.12,11.13,42.41,6.59,53.48-2.35a1.31,1.31,0,0,0-.45-.12c-.33.06-.64.17-1,.26A60.34,60.34,0,0,1,942.26,578c-6.32-3.22-12.11-7.28-16.57-13l1-.14c18.94,18.55,41.79,20.19,56.79,16.49-8-4.7-10-15.3-2.36-21.81,3.54-3,8.21-3.47,11.75-1,3.19,2.21,4.32,7.11,2.61,11.3-1.52,3.71-4.28,4.89-8.07,3.45-2.74-1-4.32-4.65-3.37-7.72C984.81,563,986.74,562.07,989.38,563.08Zm18.23-7.22c7.94-16.26,3.46-48.41-24.93-62.66A51,51,0,0,0,912,521.53a17.3,17.3,0,0,0,4.21-3.51c2.33-3.07,5.44-4.34,9.07-5.13a52.87,52.87,0,0,0,7.82-2.87c3.38-1.31,6.66-3.07,10.16-3.88,3.94-.91,5.82,1.21,5.38,5.21-.09.84-.17,1.69-.2,1.92,5.5-.78,10.8-2.15,16.11-2.19,15.61-.13,27.74,6.33,35.54,20.22A60.88,60.88,0,0,1,1007.61,555.86Zm-83.92-30.1c3.63,1.15,6.35,0,7.43-3.12a5.31,5.31,0,0,0-3.32-6.83c-2.62-1-5.31.23-6.55,3,4.23-1,5.93-.53,6.63,1.69S927.49,524.32,923.69,525.76Z" transform="translate(-897 -477)" style="fill:#1a352f"/><path d="M925.69,565.06c4.46,5.68,10.25,9.74,16.57,13a60.34,60.34,0,0,0,44.11,4.83c.32-.09.63-.2,1-.26a1.31,1.31,0,0,1,.45.12c-11.07,8.94-33.36,13.48-53.48,2.35-21.88-12.1-28.85-36-25.44-52.44,11.88,8.25,25.93,10.21,39.41,13.82a9.06,9.06,0,0,0,2.21,0l.63.58c-1.68,2.23-3.28,4.53-5.08,6.66-1.34,1.59-1.54,3.66-.16,4.89s4.38,1.32,5.33-.34a19.32,19.32,0,0,0,1.36-4.58,9.82,9.82,0,0,1,.7-2.81c1.77-2.7,3.72-5.29,5.6-7.92L960,543l-2.15,4.48c3.49-.06,7,.67,10.32-1l.92-.06c.48,3.22.73,6.36-1.05,9.37-1.16,2,.51,4.81,2.81,5s3.76-1.28,4.81-2.94c.41-.65-.23-2-.4-3A14.17,14.17,0,0,1,975,553c0-2.9,0-5.79,0-8.12a16.5,16.5,0,0,0,3.65,1.53c9.52,1.48,18.43,9.67,19.54,18.22a9.92,9.92,0,0,1-4,9.67c-3,2.33-6.47,2.27-9.14-.05a8.17,8.17,0,0,1-2.06-9.94c1.55-2.8,4.56-3.61,7.09-1.89l-.66.64c-2.64-1-4.57-.1-5.38,2.53-1,3.07.63,6.68,3.37,7.72,3.79,1.44,6.55.26,8.07-3.45,1.71-4.19.58-9.09-2.61-11.3-3.54-2.45-8.21-2-11.75,1-7.6,6.51-5.68,17.11,2.36,21.81-15,3.7-37.85,2.06-56.79-16.49l-8.32-11.52C918.35,556.13,922.33,562.09,925.69,565.06Z" transform="translate(-897 -477)" style="fill:#86eb5b"/><path d="M1007.61,555.86a60.88,60.88,0,0,0-7.54-24.56c-7.8-13.89-19.93-20.35-35.54-20.22-5.31,0-10.61,1.41-16.11,2.19,0-.23.11-1.08.2-1.92.44-4-1.44-6.12-5.38-5.21-3.5.81-6.78,2.57-10.16,3.88a52.87,52.87,0,0,1-7.82,2.87c-3.63.79-6.74,2.06-9.07,5.13a17.3,17.3,0,0,1-4.21,3.51,51,51,0,0,1,70.7-28.33C1011.07,507.45,1015.55,539.6,1007.61,555.86Z" transform="translate(-897 -477)" style="fill:#fcfcfc"/><path d="M923.69,525.76c3.8-1.44,4.94-2.86,4.19-5.23s-2.4-2.66-6.63-1.69c1.24-2.8,3.93-4,6.55-3a5.31,5.31,0,0,1,3.32,6.83C930,525.77,927.32,526.91,923.69,525.76Z" transform="translate(-897 -477)" style="fill:#81e359"/><path d="M969.08,546.46l-.92.06c0-2.42-.61-5,0-7.24.83-3.3,4.83-4.5,7.77-2.81-.07.13-.14.38-.21.38-4.93-.09-6.94,2-6.72,6.88Z" transform="translate(-897 -477)" style="fill:#78d455"/><path d="M925.69,565.06c-3.36-3-7.34-8.93-7.36-11.66l8.32,11.52Z" transform="translate(-897 -477)" style="fill:#2a5136"/><path d="M989.38,563.08l.66-.64c1.94,2.2,2.49,4.46,1,5.94a4.33,4.33,0,0,1-3.2,1c-.56-.05-1.27-1.41-1.37-2.24-.07-.54.81-1.23,1.36-1.76.1-.1.66.29,1,.45l-1,1.84c1.19,1.12,2.47.87,2.56-.88C990.48,565.55,989.76,564.31,989.38,563.08Z" transform="translate(-897 -477)" style="fill:#78d455"/><path d="M960,543l-1.13-.07c1.18-4.42-1.18-7.08-4.85-9.21C958.31,533.53,961.43,538.61,960,543Z" transform="translate(-897 -477)" style="fill:#77d355"/><path d="M951.11,547l-.63-.58a18.84,18.84,0,0,0,1.87-3.47,12.5,12.5,0,0,0,.07-3.43c1.36,0,2.19,1,1.38,2.81A47.36,47.36,0,0,1,951.11,547Z" transform="translate(-897 -477)" style="fill:#76d054"/></svg>